<?xml version="1.0" encoding="UTF-8" standalone="no"?>
<!DOCTYPE svg PUBLIC "-//W3C//DTD SVG 1.1//EN" "http://www.w3.org/Graphics/SVG/1.1/DTD/svg11.dtd">
<svg width="100%" height="100%" viewBox="0 0 16 12" version="1.1" xmlns="http://www.w3.org/2000/svg" xmlns:xlink="http://www.w3.org/1999/xlink" xml:space="preserve" xmlns:serif="http://www.serif.com/" style="fill-rule:evenodd;clip-rule:evenodd;stroke-linejoin:round;stroke-miterlimit:2;">
    <rect id="Artboard1" x="0" y="0" width="16" height="12" style="fill:none;"/>
    <g id="Artboard11" serif:id="Artboard1">
        <g transform="matrix(1,0,0,1,0,-2)">
            <path d="M0,4C0,2.9 0.9,2 2,2L14,2C15.1,2 16,2.9 16,4L16,12C16,13.1 15.1,14 14,14L2,14C0.9,14 0,13.1 0,12L0,4ZM2,3C1.4,3 1,3.4 1,4L1,4.2L8,8.4L15,4.2L15,4C15,3.4 14.6,3 14,3L2,3ZM15,5.4L10.3,8.2L15,11.1L15,5.4ZM15,12.3L9.3,8.8L8,9.6L6.7,8.8L1,12.3C1.2,12.7 1.5,13 2,13L14,13C14.5,13 14.8,12.7 15,12.3ZM1,11.1L5.7,8.2L1,5.4L1,11.1Z" style="fill-rule:nonzero;"/>
        </g>
    </g>
</svg>
