<?xml version="1.0" encoding="utf-8"?>
<!-- Generator: Adobe Illustrator 27.5.0, SVG Export Plug-In . SVG Version: 6.00 Build 0)  -->
<svg version="1.1" id="Layer_1" xmlns="http://www.w3.org/2000/svg" xmlns:xlink="http://www.w3.org/1999/xlink" x="0px" y="0px"
	 viewBox="0 0 16 16" style="enable-background:new 0 0 16 16;" xml:space="preserve">
<g>
	<path d="M8,0.5c4.1,0,7.5,3.4,7.5,7.5s-3.4,7.5-7.5,7.5S0.5,12.1,0.5,8S3.9,0.5,8,0.5 M8,0C3.6,0,0,3.6,0,8s3.6,8,8,8s8-3.6,8-8
		S12.4,0,8,0L8,0z"/>
</g>
<g>
	<path d="M4.8,5.8c0.5,0,0.9-0.4,0.9-0.8c0-0.5-0.3-0.8-0.9-0.8S3.9,4.5,3.9,5C3.9,5.4,4.2,5.8,4.8,5.8L4.8,5.8z"/>
	<g>
		<rect x="3.9" y="6.4" width="1.8" height="5.4"/>
		<path d="M8.4,11.8v-3c0-0.2,0-0.3,0.1-0.4C8.6,8,8.9,7.7,9.4,7.7c0.7,0,0.9,0.5,0.9,1.2v2.9h1.8V8.7c0-1.7-0.9-2.4-2.1-2.4
			c-1,0-1.4,0.5-1.6,0.9v0h0c0,0,0,0,0,0V6.4H6.6c0,0.5,0,5.4,0,5.4H8.4z"/>
	</g>
</g>
</svg>
